<svg width="107" height="107" viewBox="0 0 107 107" fill="none" xmlns="http://www.w3.org/2000/svg">
<path fill-rule="evenodd" clip-rule="evenodd" d="M53.5011 0.00444463C83.0483 0.00444463 107 23.9665 107 53.4944C107 83.0224 83.0483 107 53.5011 107C23.9539 107 0 83.0424 0 53.4944C0 23.9465 23.9539 0 53.5122 0L53.5011 0.00444463ZM31.6455 28.1537L45.0568 28.0338L43.7246 31.0621H34.8429V80.1362H72.4502V31.071H63.1755L61.8988 28.1626H75.3567V83.0335H31.6455V28.1537ZM35.9242 32.15H43.2516L42.5322 33.7884H64.3745L63.6551 32.15H71.3622V79.0395H35.9242V32.1477V32.15ZM45.1812 40.7353L45.8318 42.4226L48.3675 42.5602L46.3958 44.1632L47.0619 46.6053L44.9281 45.2266L42.792 46.612L43.4448 44.1698L41.4731 42.5669L44.011 42.4292L44.9236 40.0626L45.1878 40.7419L45.1812 40.7353ZM45.3721 42.7978L44.917 41.6211L44.3974 42.9665L42.9585 43.0442L44.0687 43.9545L43.6979 45.3487L44.9081 44.565L46.1204 45.3487L45.7496 43.9545L46.8598 43.0442L45.4188 42.9665L45.3544 42.7978H45.3721ZM45.2234 36.5037C45.6919 36.9921 46.1426 37.2962 46.5667 37.3229C46.9908 37.3495 47.3816 37.1142 47.8257 36.5392L48.121 36.1773L51.0076 38.8881L50.3992 39.139C48.9603 39.7273 49.4155 40.7175 49.9729 41.923C51.0831 44.3252 52.4953 47.4024 45.0879 50.4684L44.9258 50.535L44.766 50.4684C37.3608 47.4024 38.7708 44.3252 39.881 41.923C40.4361 40.7175 40.8913 39.7273 39.4525 39.139L38.8441 38.8881L41.7306 36.1773L42.0149 36.5481C42.4589 37.1231 42.8786 37.3562 43.2761 37.3318C43.6735 37.3074 44.1509 37.001 44.6083 36.5125L44.9125 36.1928L45.2189 36.5125L45.2234 36.5037ZM46.5134 38.1666C45.9628 38.1333 45.4343 37.8491 44.917 37.3873C44.4018 37.8491 43.8711 38.1333 43.3227 38.1666C42.7742 38.1999 42.1858 37.9756 41.6418 37.4073L40.3495 38.6195C41.9038 39.5275 41.3354 40.773 40.6493 42.2605C39.7123 44.2942 38.5155 46.8984 44.9236 49.6003C51.3318 46.8984 50.1349 44.2942 49.1979 42.2605C48.514 40.773 47.9412 39.5275 49.4977 38.6195L48.201 37.3984C47.657 37.9645 47.0907 38.1954 46.5201 38.1577L46.5134 38.1666ZM66.8725 54.2804H41.4242V53.2325H66.8725V54.2804ZM66.8725 75.7159H41.4242V74.668H66.8725V75.7159ZM66.8725 70.3565H41.4242V69.3086H66.8725V70.3565ZM66.8725 64.9993H41.4242V63.9491H66.8725V64.9993ZM66.8725 59.6398H41.4242V58.6008H66.8725V59.6487V59.6398ZM55.2464 38.4596H66.8725V39.5075H55.2464V38.4574V38.4596ZM55.2464 47.3957H66.8725V48.4436H55.2464V47.3957ZM55.2464 42.9266H66.8725V43.9767H55.2464V42.9266ZM63.2399 33.0447L60.5443 26.9082H56.754C56.754 25.2808 55.2774 23.9643 53.4589 23.9643C51.6404 23.9643 50.166 25.2808 50.166 26.9082H46.3736L43.6802 33.0425L63.2399 33.0447ZM53.45 25.0277C54.6113 25.0277 55.5528 25.8669 55.5528 26.906C55.5528 27.945 54.6113 28.7842 53.45 28.7842C52.2888 28.7842 51.3495 27.9428 51.3495 26.906C51.3495 25.8692 52.291 25.0277 53.45 25.0277Z" fill="#EF3B39"/>
</svg>
