<svg width="107" height="107" viewBox="0 0 107 107" fill="none" xmlns="http://www.w3.org/2000/svg">
<path fill-rule="evenodd" clip-rule="evenodd" d="M53.5022 0C83.0512 0 107 23.963 107 53.4922C107 83.0214 83.0512 107 53.5022 107C23.9532 107 0 83.0414 0 53.4922C0 23.9431 23.951 0 53.5022 0ZM41.7155 22.9262H65.2979C66.2241 22.9285 67.1118 23.2975 67.7667 23.9523C68.4217 24.6072 68.7907 25.4947 68.793 26.4209V80.5791C68.7907 81.5053 68.4217 82.3928 67.7667 83.0477C67.1118 83.7025 66.2241 84.0715 65.2979 84.0738H41.7155C40.7885 84.0726 39.8997 83.7042 39.2437 83.0492C38.5878 82.3942 38.2182 81.506 38.2159 80.5791V26.4209C38.2182 25.494 38.5878 24.6058 39.2437 23.9508C39.8997 23.2958 40.7885 22.9274 41.7155 22.9262ZM53.5067 76.2985C54.0386 76.2981 54.5587 76.4554 55.0013 76.7506C55.4438 77.0458 55.7888 77.4655 55.9927 77.9568C56.1965 78.448 56.2501 78.9887 56.1466 79.5104C56.0431 80.0321 55.7871 80.5114 55.4112 80.8877C55.0352 81.2639 54.556 81.5202 54.0343 81.6241C53.5126 81.728 52.9718 81.6749 52.4803 81.4715C51.9888 81.2681 51.5687 80.9234 51.2731 80.4812C50.9776 80.039 50.8198 79.5191 50.8198 78.9872C50.8198 78.2745 51.1028 77.591 51.6066 77.0868C52.1104 76.5826 52.7939 76.2991 53.5067 76.2985ZM49.5097 25.3418H57.5037C57.55 25.3424 57.5943 25.3611 57.6271 25.3938C57.6599 25.4266 57.6785 25.4709 57.6791 25.5172V26.5985C57.6785 26.6446 57.6598 26.6887 57.6269 26.7211C57.5941 26.7535 57.5498 26.7717 57.5037 26.7717H49.5097C49.4637 26.7717 49.4197 26.7534 49.3872 26.7209C49.3547 26.6885 49.3364 26.6444 49.3364 26.5985V25.5172C49.3364 25.4711 49.3546 25.4268 49.387 25.394C49.4195 25.3611 49.4635 25.3424 49.5097 25.3418ZM40.7806 29.6313H66.2238V74.2048H40.7806V29.6313Z" fill="#EF3B39"/>
</svg>
