<svg width="109" height="109" viewBox="0 0 109 109" fill="none" xmlns="http://www.w3.org/2000/svg">
<path fill-rule="evenodd" clip-rule="evenodd" d="M54.4932 0.00452771C84.5896 0.00452771 109 24.4032 109 54.4989C109 84.5946 84.5896 109 54.4932 109C24.3969 109 0 84.5946 0 54.4943C0 24.3941 24.3969 0 54.4932 0V0.00452771ZM29.1306 41.1348C28.1875 44.127 29.4902 43.5842 31.4715 44.1677C33.1609 44.6652 33.9367 46.8816 33.6042 48.2115C31.9125 54.9806 27.8844 61.2137 24.1866 67.2704C21.3391 71.9339 24.2137 73.4809 24.1866 73.3248H42.0268C42.0268 73.3248 43.135 73.3655 43.3566 72.0357C43.6303 70.3937 40.9276 69.3353 42.4135 67.7137C43.6326 66.3838 44.2432 65.9745 44.2432 64.6831C44.2432 63.3917 43.2187 62.6476 45.4352 61.3177C48.5676 59.4383 45.0845 54.7047 48.8412 53.7254C50.1553 53.3816 51.2002 53.8339 52.1365 54.9987L62.9045 55.0191C64.6912 55.0191 65.1209 54.465 65.1209 53.5784C65.1209 52.9926 65.1978 48.8289 65.2498 46.0991H69.884V41.1371L29.1306 41.1348ZM53.6609 47.0309H55.6105V50.3397H54.4118L52.1229 48.3947C52.5572 47.4064 52.8783 47.0219 53.6609 47.0219V47.0309ZM27.5112 74.433H39.5954V75.8194H27.518V74.433H27.5112ZM66.8036 33.1761V33.7189C66.8024 34.2332 66.5976 34.726 66.2339 35.0897C65.8703 35.4534 65.3774 35.6582 64.8631 35.6594H55.7349C55.2604 35.6574 54.8028 35.4824 54.4481 35.1672C54.0933 34.852 53.8657 34.4183 53.8079 33.9473H47.3756V33.1761H66.8036ZM29.5739 33.1761H46.0842V35.2319H52.8829C53.1582 35.7476 53.5682 36.1789 54.0692 36.48C54.5703 36.7811 55.1436 36.9407 55.7281 36.9417H64.8563C65.2804 36.9426 65.7006 36.86 66.0927 36.6985C66.4849 36.537 66.8415 36.2999 67.142 36.0006C67.4426 35.7013 67.6812 35.3458 67.8443 34.9543C68.0075 34.5628 68.0919 34.143 68.0928 33.7189V33.1761H86.0664V39.8525H41.2058V35.0713H39.9302V39.8525H39.0436V35.0713H37.7702V39.8525H36.4969V35.0713H35.2213V39.8525H34.3166V35.0713H33.0365V39.8525H29.5761V33.1761H29.5739ZM70.9968 41.1371H86.0596V46.0991H70.9968V41.1371ZM38.1344 70.5204C38.4759 69.6157 39.3648 67.5667 40.4074 65.1648C42.4656 60.4153 45.1298 54.2817 45.1909 53.6123C45.1909 53.5196 45.2022 53.4155 45.2022 53.3025C45.2088 52.9094 45.1228 52.5203 44.9511 52.1667C44.7794 51.8131 44.5268 51.5048 44.2138 51.267C43.4963 50.7483 42.6459 50.4447 41.7622 50.3917C41.579 50.3759 41.3822 50.3668 41.1696 50.3668C39.955 50.3668 38.7812 50.5433 37.8426 51.0453C37.3618 51.2926 36.9406 51.6417 36.6082 52.0681C36.2758 52.4946 36.0403 52.9884 35.9179 53.5151C35.681 54.4082 35.3932 55.2872 35.0562 56.1476C34.7486 56.9392 34.423 57.6584 34.1131 58.3052C33.1315 60.3565 31.6252 62.3264 30.2682 64.0928C28.7393 66.0943 27.3823 67.8381 27.3823 68.9553C27.3823 69.9052 28.581 70.4684 31.9645 70.4684C34.3528 70.4684 37.1664 70.5068 38.1253 70.5204H38.1344ZM41.2691 65.5447C39.9754 68.5165 38.9169 70.9365 38.9169 71.0044V71.4816H38.4374C38.4374 71.4816 35.0336 71.4273 31.9645 71.4273C27.8935 71.4273 26.4415 70.5226 26.4415 68.9734C26.4415 67.5418 27.8663 65.6782 29.5173 63.5228C30.8449 61.7882 32.3218 59.8567 33.2582 57.9004C33.5567 57.2762 33.8711 56.5818 34.1629 55.8084C34.4865 54.9804 34.7629 54.1347 34.9906 53.2753C35.1446 52.6169 35.4409 52.0002 35.8586 51.4685C36.2762 50.9367 36.8052 50.5028 37.4084 50.1972C38.5031 49.625 39.8216 49.417 41.1696 49.417C41.3837 49.417 41.6099 49.4283 41.8481 49.4509C42.9101 49.5199 43.9302 49.8911 44.7883 50.5206C45.218 50.8448 45.565 51.266 45.8008 51.7499C46.0366 52.2337 46.1547 52.7665 46.1453 53.3047C46.1453 53.4193 46.1385 53.5505 46.125 53.6982C46.0503 54.517 43.3521 60.7365 41.2691 65.5402V65.5447ZM53.6609 46.2212H61.6583C61.8246 46.2212 61.9842 46.2872 62.102 46.4046C62.2199 46.522 62.2864 46.6814 62.287 46.8477V52.6285C62.2864 52.7951 62.22 52.9546 62.1022 53.0724C61.9844 53.1902 61.8248 53.2566 61.6583 53.2572H53.6609C49.8318 53.2572 50.4945 46.2212 53.6609 46.2212Z" fill="#EF3B39"/>
</svg>
