<svg width="109" height="109" viewBox="0 0 109 109" fill="none" xmlns="http://www.w3.org/2000/svg">
<path fill-rule="evenodd" clip-rule="evenodd" d="M54.5068 0C84.6031 0 109 24.3996 109 54.4966C109 84.5936 84.6031 109 54.5068 109C24.4104 109 0 84.6026 0 54.5056C0 24.4087 24.3991 0.00904199 54.5068 0.00904199V0ZM22.004 79.8236H33.3577L31.4669 59.581L31.3312 59.6036C29.4585 59.9519 27.6198 61.3565 27.0747 63.0369L22.004 79.8236ZM41.251 57.9118L42.9134 67.8635C43.239 69.8131 41.7463 71.627 39.7854 71.869C37.8087 71.869 36.1079 70.6884 35.78 68.741L34.1583 59.1105L41.251 57.9118ZM67.0094 57.7987L65.3493 67.7504C65.0237 69.7 66.5141 71.5139 68.4772 71.7559C70.4517 71.7559 72.1525 70.5753 72.4805 68.6257L74.1021 58.9952L67.0094 57.7965V57.7987ZM69.6624 72.6222V73.6264C69.66 74.4588 69.3282 75.2565 68.7396 75.8452C68.151 76.4338 67.3533 76.7656 66.5209 76.768H43.2254C42.393 76.7656 41.5953 76.4338 41.0067 75.8452C40.4181 75.2565 40.0864 74.4588 40.084 73.6264V72.6244C41.9906 72.6606 43.3656 70.7902 43.8293 69.7679H64.5464C65.3018 71.7378 66.7719 72.9343 69.6714 72.6222H69.6624ZM43.0603 57.5997L42.1195 57.758L43.8135 67.8974C43.8598 68.1776 43.8772 68.4618 43.8655 68.7456H64.4695C64.4274 68.369 64.4373 67.9885 64.4989 67.6147L66.1658 57.6449L65.9555 57.611C63.16 62.8537 59.5187 66.4838 54.5091 67.5152C49.4971 66.4838 45.8558 62.8537 43.0603 57.611V57.5997ZM39.0639 72.8529C37.0284 72.5747 35.3389 71.1905 34.9793 69.0577L33.3351 59.2417L32.7696 59.3367L34.6694 79.8236H74.3418L76.2529 59.3458L74.9547 59.1196L73.3309 68.7659C73.2098 69.509 72.9032 70.2094 72.4394 70.8025C71.9757 71.3955 71.3698 71.8619 70.6779 72.1585V73.6219C70.6779 74.7252 70.2402 75.7835 69.4609 76.5646C68.6815 77.3456 67.6242 77.7856 66.5209 77.788H43.2254C42.1237 77.7856 41.0677 77.3469 40.2887 76.5678C39.5096 75.7887 39.0709 74.7327 39.0685 73.6309V72.8642L39.0639 72.8529ZM38.3492 37.529C38.3492 40.0396 39.22 40.5824 39.4394 41.1275C39.6836 41.7381 39.4846 42.2131 39.9347 42.9369C40.5318 43.9094 41.7192 44.0677 42.6804 43.3146C43.5986 42.5886 43.1689 41.5527 43.3227 40.4263L43.3385 33.8673H65.6117L65.7994 42.5026C65.9668 43.4073 67.6336 44.5495 69.011 43.0477C69.5086 42.5049 69.3027 42.0209 69.5018 41.288C69.7121 40.5191 70.662 40.1572 70.662 37.2757C70.6538 36.3932 70.4367 35.5252 70.0288 34.7426C69.3503 33.6117 69.5063 34.0641 69.3299 32.2185C69.1591 30.4598 68.6613 28.7484 67.862 27.1725C66.9574 25.336 65.9441 24.2639 64.5916 22.8978C64.0378 22.3694 63.4426 21.8861 62.8117 21.4526C62.3774 21.1468 61.9241 20.8688 61.4547 20.6203C60.4689 20.0963 59.4252 19.6894 58.3449 19.408C57.3388 19.1625 56.3121 19.011 55.278 18.9556H53.3872C52.7021 18.9926 52.0213 19.0864 51.3517 19.2361C50.8075 19.3592 50.2701 19.5102 49.7414 19.6884C47.4503 20.4552 44.7657 22.165 43.2322 24.0717C41.6604 26.0236 40.4888 27.8217 39.9098 30.7302C39.7848 31.3232 39.6935 31.9228 39.6362 32.5261C39.4778 34.6431 39.41 33.8695 38.9011 34.8941C38.7774 35.1302 38.6796 35.3789 38.6093 35.636C38.4385 36.2463 38.3525 36.8772 38.3537 37.5109L38.3492 37.529ZM54.5068 53.1034C55.6761 52.9925 56.09 52.7913 59.1161 51.242C65.9193 47.7679 64.1664 42.5026 64.422 35.2854H44.5892C44.8448 42.5026 43.092 47.7679 49.8952 51.242C52.9281 52.7913 53.3352 52.9925 54.5068 53.1034ZM75.6536 79.8236H87.0073L81.9366 63.0369C81.3915 61.3565 79.555 59.9519 77.6801 59.6036L77.5444 59.581L75.6536 79.8236ZM64.9038 56.7968C63.7006 55.2837 63.0379 52.4113 62.6421 51.3686C57.4945 54.3473 51.5394 54.3541 46.3828 51.3686C45.9802 52.4068 45.3175 55.2792 44.1211 56.7968L44.2251 56.9913C46.4868 61.2366 49.6532 65.0635 54.5203 66.174C59.3739 65.0635 62.5493 61.2366 64.8133 56.9913L64.9173 56.7968H64.9038Z" fill="#EF3B39"/>
</svg>
