<svg width="107" height="107" viewBox="0 0 107 107" fill="none" xmlns="http://www.w3.org/2000/svg">
<path fill-rule="evenodd" clip-rule="evenodd" d="M53.4933 0.00444463C83.0374 0.00444463 107 23.9554 107 53.4989C107 83.0424 83.0374 107 53.4933 107C23.9492 107 0 83.0424 0 53.4944C0 23.9465 23.9492 0 53.4933 0V0.00444463ZM32.9299 29.5457L88.3104 48.417L87.2314 51.4874L65.8487 61.6402L27.8168 47.9241L32.9232 29.5457H32.9299ZM29.9237 51.6162L66.5148 64.8172L73.4462 61.0429L71.448 66.5933L70.5444 69.0976L63.3865 66.5156L52.7007 62.6614L46.7284 70.3165C46.855 71.2374 46.6786 72.1745 46.2258 72.9863C45.7729 73.7981 45.0682 74.4405 44.2181 74.8165C43.368 75.1926 42.4186 75.2818 41.5133 75.0708C40.608 74.8597 39.7959 74.3599 39.1997 73.6467L26.8088 75.0299C26.3981 75.8765 25.7198 76.5642 24.8788 76.9866C24.0379 77.4089 23.0813 77.5424 22.1569 77.3664C21.2324 77.1903 20.3918 76.7146 19.7649 76.0127C19.1381 75.3109 18.7601 74.422 18.6892 73.4837C18.6184 72.5454 18.8587 71.6098 19.3731 70.8218C19.8874 70.0338 20.6471 69.4373 21.5347 69.1245C22.4222 68.8117 23.388 68.8 24.2828 69.0914C25.1776 69.3827 25.9515 69.9607 26.4847 70.7361L38.4737 69.3929C38.8702 68.3405 39.665 67.4865 40.6862 67.0153C41.7074 66.5442 42.873 66.4939 43.931 66.8753L48.4269 61.114L29.0135 54.1117L29.9171 51.6073L29.9237 51.6162ZM88.2727 56.3806L85.4108 55.3483L77.3937 59.3334L74.5541 67.2083L83.2328 70.3387L88.2727 56.3806Z" fill="#EF3B39"/>
</svg>
