<svg width="109" height="107" viewBox="0 0 109 107" fill="none" xmlns="http://www.w3.org/2000/svg">
<path fill-rule="evenodd" clip-rule="evenodd" d="M54.4932 0.00444463C84.5896 0.00444463 109 23.9554 109 53.4989C109 83.0424 84.5896 107 54.4932 107C24.3969 107 0 83.0424 0 53.4944C0 23.9465 24.3969 0 54.4932 0V0.00444463ZM39.514 26.6063C40.3667 26.6063 41.2002 26.8543 41.9093 27.3192C42.6184 27.784 43.1712 28.4447 43.4979 29.2178C43.8246 29.9909 43.9105 30.8418 43.7448 31.6628C43.5792 32.4838 43.1693 33.2382 42.567 33.8307C41.9647 34.4232 41.197 34.8271 40.361 34.9915C39.5249 35.1558 38.658 35.0732 37.8698 34.7542C37.0815 34.4351 36.4073 33.8938 35.9323 33.1987C35.4572 32.5036 35.2028 31.6859 35.201 30.8489C35.201 30.293 35.3125 29.7424 35.5293 29.2287C35.746 28.7151 36.0637 28.2483 36.4642 27.8552C36.8647 27.462 37.3402 27.1502 37.8635 26.9374C38.3868 26.7246 38.9476 26.6151 39.514 26.6151V26.6063ZM48.3007 69.5284V44.9713C48.3037 43.9473 48.7196 42.9661 49.4574 42.2422C50.1953 41.5183 51.1951 41.1106 52.2383 41.1083C53.2811 41.1112 54.2803 41.5191 55.0177 42.243C55.7551 42.9668 56.1707 43.9477 56.1737 44.9713V57.8859C56.176 56.8619 56.5914 55.8804 57.3288 55.1561C58.0662 54.4318 59.0658 54.0236 60.109 54.0206C61.1522 54.0236 62.1518 54.4318 62.8892 55.1561C63.6267 55.8804 64.042 56.8619 64.0444 57.8859V58.7939H64.1529V57.8859C64.1553 56.8619 64.5706 55.8804 65.308 55.1561C66.0455 54.4318 67.045 54.0236 68.0882 54.0206C69.1316 54.0236 70.1315 54.4317 70.8693 55.156C71.6071 55.8802 72.0229 56.8617 72.0259 57.8859V58.6252C72.1815 57.7245 72.6562 56.9066 73.3663 56.316C74.0764 55.7254 74.9762 55.4 75.9069 55.3971C76.9497 55.4 77.949 55.808 78.6863 56.5318C79.4237 57.2556 79.8393 58.2365 79.8423 59.2602V78.1914C79.8423 78.6601 79.6535 79.1099 79.3171 79.4426C78.9807 79.7753 78.524 79.964 78.0465 79.9675H50.0988C49.6189 79.9675 49.1587 79.7804 48.8193 79.4473C48.48 79.1142 48.2894 78.6624 48.2894 78.1914V69.5328L48.3007 69.5284ZM39.514 49.4693C40.3671 49.4693 41.2009 49.7176 41.9102 50.1828C42.6195 50.6481 43.1723 51.3093 43.4988 52.0829C43.8252 52.8566 43.9106 53.7078 43.7442 54.5291C43.5778 55.3504 43.167 56.1048 42.5638 56.6969C41.9606 57.289 41.1921 57.6922 40.3554 57.8556C39.5188 58.019 38.6516 57.9351 37.8635 57.6147C37.0754 57.2942 36.4018 56.7516 35.9279 56.0553C35.4539 55.3591 35.201 54.5405 35.201 53.7031C35.201 52.5803 35.6554 51.5034 36.4642 50.7094C37.2731 49.9154 38.3701 49.4693 39.514 49.4693ZM64.1031 49.4693C64.9424 49.4692 65.7635 49.7094 66.4657 50.1606C67.1679 50.6117 67.7208 51.2542 68.0566 52.0092C66.5943 52.0177 65.1861 52.5525 64.0986 53.5122C63.0141 52.5536 61.609 52.0189 60.1497 52.0092C60.4855 51.2542 61.0384 50.6117 61.7406 50.1606C62.4428 49.7094 63.2639 49.4692 64.1031 49.4693ZM39.514 37.9246C40.3671 37.9241 41.2012 38.1719 41.9109 38.6366C42.6206 39.1013 43.1741 39.7621 43.5014 40.5354C43.8287 41.3088 43.9151 42.16 43.7498 42.9816C43.5844 43.8031 43.1747 44.5581 42.5724 45.1512C41.9702 45.7443 41.2023 46.1488 40.3659 46.3137C39.5295 46.4786 38.6621 46.3964 37.8732 46.0776C37.0844 45.7587 36.4095 45.2175 35.9339 44.5223C35.4583 43.8271 35.2032 43.0091 35.201 42.1717C35.201 41.0488 35.6554 39.9719 36.4642 39.1779C37.2731 38.3839 38.3701 37.9379 39.514 37.9379V37.9246ZM64.1031 37.9246C64.9562 37.9241 65.7904 38.1719 66.5001 38.6366C67.2098 39.1013 67.7632 39.7621 68.0905 40.5354C68.4178 41.3088 68.5042 42.16 68.3389 42.9816C68.1736 43.8031 67.7638 44.5581 67.1616 45.1512C66.5593 45.7443 65.7914 46.1488 64.955 46.3137C64.1186 46.4786 63.2512 46.3964 62.4624 46.0776C61.6735 45.7587 60.9986 45.2175 60.523 44.5223C60.0474 43.8271 59.7923 43.0091 59.7901 42.1717C59.7901 41.0488 60.2445 39.9719 61.0534 39.1779C61.8622 38.3839 62.9592 37.9379 64.1031 37.9379V37.9246ZM51.8086 37.9246C52.5752 37.9247 53.328 38.1253 53.9894 38.5057C54.6509 38.8862 55.1972 39.4328 55.572 40.0892C54.3324 39.2699 52.8249 38.9366 51.3472 39.1553C49.8695 39.374 48.529 40.1287 47.5905 41.2703C47.7996 40.323 48.3333 39.4747 49.1026 38.8671C49.8719 38.2594 50.8302 37.9291 51.8176 37.9312L51.8086 37.9246ZM64.1031 26.6018C64.9556 26.6018 65.7889 26.8498 66.4979 27.3144C67.2069 27.7791 67.7597 28.4395 68.0866 29.2123C68.4134 29.9852 68.4996 30.8358 68.3343 31.6567C68.169 32.4776 67.7595 33.232 67.1577 33.8247C66.5559 34.4173 65.7886 34.8216 64.9529 34.9865C64.1171 35.1513 63.2503 35.0694 62.462 34.751C61.6737 34.4326 60.9991 33.892 60.5236 33.1975C60.048 32.503 59.7928 31.6857 59.7901 30.8489C59.7901 30.293 59.9017 29.7424 60.1184 29.2287C60.3352 28.7151 60.6529 28.2483 61.0534 27.8552C61.4539 27.462 61.9293 27.1502 62.4526 26.9374C62.9759 26.7246 63.5367 26.6151 64.1031 26.6151V26.6018ZM51.8086 26.6018C52.661 26.6018 53.4944 26.8498 54.2034 27.3144C54.9124 27.7791 55.4652 28.4395 55.792 29.2123C56.1188 29.9852 56.2051 30.8358 56.0397 31.6567C55.8744 32.4776 55.465 33.232 54.8631 33.8247C54.2613 34.4173 53.4941 34.8216 52.6583 34.9865C51.8226 35.1513 50.9558 35.0694 50.1674 34.751C49.3791 34.4326 48.7046 33.892 48.229 33.1975C47.7535 32.503 47.4982 31.6857 47.4955 30.8489C47.4944 30.2915 47.6053 29.7392 47.8221 29.2239C48.0389 28.7087 48.3572 28.2405 48.7588 27.8463C49.1604 27.4521 49.6373 27.1396 50.1622 26.9268C50.6871 26.714 51.2497 26.6051 51.8176 26.6063L51.8086 26.6018Z" fill="#EF3B39"/>
</svg>
