<svg width="109" height="107" viewBox="0 0 109 107" fill="none" xmlns="http://www.w3.org/2000/svg">
<path fill-rule="evenodd" clip-rule="evenodd" d="M54.4932 0C84.5896 0 109 23.9519 109 53.4967C109 83.0414 84.5896 107 54.4932 107C24.3969 107 0 83.0414 0 53.4922C0 23.9431 24.3969 0 54.4932 0ZM55.1717 27.6708C55.7164 27.6726 56.2383 27.8858 56.6235 28.2639C57.0086 28.642 57.2258 29.1543 57.2276 29.689V35.3817C57.2258 35.9165 57.0086 36.4288 56.6235 36.8069C56.2383 37.185 55.7164 37.3982 55.1717 37.3999C54.627 37.3982 54.1051 37.185 53.72 36.8069C53.3348 36.4288 53.1176 35.9165 53.1158 35.3817V29.689C53.1176 29.1543 53.3348 28.642 53.72 28.2639C54.1051 27.8858 54.627 27.6726 55.1717 27.6708ZM54.5384 38.9097C58.6604 38.9079 62.6142 40.5133 65.5305 43.3729C68.4469 46.2324 70.0868 50.1119 70.0898 54.1583V69.9975H39.0029V64.8909C39.0029 62.3754 38.8491 55.9944 39.0029 54.1583C39.0025 52.6002 39.2443 51.0511 39.7198 49.5646C39.9188 48.699 40.2668 47.873 40.7489 47.1224C42.0602 44.6419 44.0404 42.5627 46.4733 41.1117C48.9063 39.6607 51.6985 38.8936 54.5452 38.8942L54.5384 38.9097ZM47.9976 67.2577H41.64V66.5672C41.64 62.5486 41.0316 51.4696 43.3318 48.1836C45.5799 43.9408 49.8522 41.4852 54.8506 40.748C50.187 42.4088 47.5272 50.0731 47.9999 55.486C47.8574 57.462 47.9795 63.9695 47.9999 67.2533L47.9976 67.2577ZM37.7476 79.3336H73.738V74.2271C73.7356 73.605 73.4826 73.0091 73.0343 72.5694C72.586 72.1298 71.9788 71.882 71.3451 71.8803H37.7476C37.114 71.882 36.5067 72.1298 36.0584 72.5694C35.6101 73.0091 35.3572 73.605 35.3548 74.2271V79.3336H37.7476ZM75.1311 34.7889C74.7454 34.4113 74.2228 34.1993 73.678 34.1993C73.1332 34.1993 72.6107 34.4113 72.2249 34.7889L68.1244 38.8142C67.7398 39.193 67.5238 39.7059 67.5238 40.2407C67.5238 40.7755 67.7398 41.2885 68.1244 41.6672C68.5102 42.0448 69.0328 42.2569 69.5776 42.2569C70.1224 42.2569 70.6449 42.0448 71.0307 41.6672L75.1311 37.6419C75.5158 37.2632 75.7318 36.7502 75.7318 36.2154C75.7318 35.6806 75.5158 35.1677 75.1311 34.7889ZM34.9092 34.7889C35.2954 34.4112 35.8183 34.1991 36.3635 34.1991C36.9086 34.1991 37.4316 34.4112 37.8178 34.7889L41.9182 38.8142C42.3017 39.1935 42.517 39.7063 42.517 40.2407C42.517 40.7752 42.3017 41.2879 41.9182 41.6672C41.532 42.045 41.0091 42.257 40.4639 42.257C39.9188 42.257 39.3959 42.045 39.0097 41.6672L34.9092 37.6419C34.5246 37.2632 34.3086 36.7502 34.3086 36.2154C34.3086 35.6806 34.5246 35.1677 34.9092 34.7889ZM27.025 52.7196C27.0268 52.1849 27.2439 51.6726 27.6291 51.2944C28.0143 50.9163 28.5361 50.7031 29.0808 50.7014H34.8821C35.4268 50.7031 35.9487 50.9163 36.3338 51.2944C36.719 51.6726 36.9362 52.1849 36.938 52.7196C36.9362 53.2543 36.719 53.7666 36.3338 54.1447C35.9487 54.5228 35.4268 54.736 34.8821 54.7378H29.0808C28.5361 54.736 28.0143 54.5228 27.6291 54.1447C27.2439 53.7666 27.0268 53.2543 27.025 52.7196ZM72.0507 52.7196C72.0525 52.1849 72.2697 51.6726 72.6549 51.2944C73.04 50.9163 73.5619 50.7031 74.1066 50.7014H79.9056C80.4503 50.7031 80.9722 50.9163 81.3573 51.2944C81.7425 51.6726 81.9597 52.1849 81.9615 52.7196C81.9597 53.2543 81.7425 53.7666 81.3573 54.1447C80.9722 54.5228 80.4503 54.736 79.9056 54.7378H74.1066C73.5619 54.736 73.04 54.5228 72.6549 54.1447C72.2697 53.7666 72.0525 53.2543 72.0507 52.7196Z" fill="#EF3B39"/>
</svg>
